<svg xmlns="http://www.w3.org/2000/svg" viewBox="0 0 120 120" fill="none">
  <!-- Outer circle frame -->
  <circle cx="60" cy="60" r="56" fill="#060e18" stroke="#D4A017" stroke-width="2"/>
  <!-- Inner circle -->
  <circle cx="60" cy="60" r="46" fill="#0a1828" stroke="#8B6914" stroke-width="1"/>

  <!-- Corner diamonds -->
  <rect x="57.5" y="1.5" width="5" height="5" fill="#F0C040" transform="rotate(45 60 4)"/>
  <rect x="57.5" y="113.5" width="5" height="5" fill="#F0C040" transform="rotate(45 60 116)"/>
  <rect x="1.5" y="57.5" width="5" height="5" fill="#F0C040" transform="rotate(45 4 60)"/>
  <rect x="113.5" y="57.5" width="5" height="5" fill="#F0C040" transform="rotate(45 116 60)"/>

  <!-- Burst lines -->
  <line x1="60" y1="14" x2="60" y2="22" stroke="#D4A017" stroke-width="1.5" stroke-linecap="round"/>
  <line x1="60" y1="98" x2="60" y2="106" stroke="#D4A017" stroke-width="1.5" stroke-linecap="round"/>
  <line x1="14" y1="60" x2="22" y2="60" stroke="#D4A017" stroke-width="1.5" stroke-linecap="round"/>
  <line x1="98" y1="60" x2="106" y2="60" stroke="#D4A017" stroke-width="1.5" stroke-linecap="round"/>

  <!-- Glow -->
  <circle cx="60" cy="60" r="24" fill="#D4A017" opacity="0.07"/>

  <!-- Moneda cuerpo -->
  <circle cx="60" cy="60" r="26" fill="#C8920A"/>
  <!-- Moneda cara dorada -->
  <circle cx="60" cy="60" r="26" fill="#F0C040"/>
  <!-- Borde exterior -->
  <circle cx="60" cy="60" r="26" fill="none" stroke="#8B6914" stroke-width="3.5"/>
  <!-- Borde interior decorativo -->
  <circle cx="60" cy="60" r="22" fill="none" stroke="#D4A017" stroke-width="1"/>

  <!-- Highlight -->
  <ellipse cx="53" cy="47" rx="9" ry="4.5" fill="white" opacity="0.15" transform="rotate(-20 53 47)"/>

  <!-- Símbolo: estrella de 4 puntas con picos iguales -->
  <polygon points="60,36 63,57 60,84 57,57" fill="#8B6914"/>
  <polygon points="36,60 57,57 84,60 57,63" fill="#8B6914"/>
  <polygon points="60,39 62,57 60,81 58,57" fill="#D4A017"/>
  <polygon points="39,60 58,58 81,60 58,62" fill="#D4A017"/>

  <!-- Centro brillante -->
  <circle cx="60" cy="60" r="3.5" fill="#F0C040"/>
  <circle cx="60" cy="60" r="2" fill="white" opacity="0.5"/>
</svg>
