<svg xmlns="http://www.w3.org/2000/svg" viewBox="0 0 64 64" fill="none">
  <!-- Bastón -->
  <line x1="32" y1="54" x2="32" y2="22" stroke="#2AABB5" stroke-width="2.5" stroke-linecap="round"/>
  <!-- Orbe -->
  <circle cx="32" cy="16" r="10" fill="#0a1828" stroke="#2AABB5" stroke-width="1.5"/>
  <circle cx="32" cy="16" r="7" fill="#17324d" opacity="0.8"/>
  <circle cx="32" cy="16" r="4" fill="#2AABB5" opacity="0.4"/>
  <!-- Espiral mágica -->
  <path d="M32 10 C36 10 38 13 38 16 C38 19 36 22 32 22 C28 22 26 19 26 16 C26 14 27 12 29 11" stroke="#F0C040" stroke-width="1" fill="none" opacity="0.7" stroke-linecap="round"/>
  <!-- Brillo orbe -->
  <circle cx="29" cy="13" r="2" fill="white" opacity="0.2"/>
  <!-- Runas flotantes -->
  <rect x="18" y="28" width="4" height="4" fill="none" stroke="#2AABB5" stroke-width="1" opacity="0.5" transform="rotate(15 20 30)"/>
  <rect x="42" y="28" width="4" height="4" fill="none" stroke="#2AABB5" stroke-width="1" opacity="0.5" transform="rotate(-15 44 30)"/>
  <rect x="20" y="38" width="3" height="3" fill="none" stroke="#D4A017" stroke-width="1" opacity="0.4" transform="rotate(30 21.5 39.5)"/>
  <rect x="41" y="38" width="3" height="3" fill="none" stroke="#D4A017" stroke-width="1" opacity="0.4" transform="rotate(-30 42.5 39.5)"/>
</svg>
