<svg xmlns="http://www.w3.org/2000/svg" viewBox="0 0 64 64" fill="none">
  <!-- Cerebro estilizado -->
  <path d="M32 14 C24 14 18 20 18 28 C18 32 20 36 22 38 L22 50 L42 50 L42 38 C44 36 46 32 46 28 C46 20 40 14 32 14Z" fill="#0a1828" stroke="#2AABB5" stroke-width="1.5"/>
  <!-- Surcos del cerebro -->
  <path d="M24 24 C26 22 30 22 32 24 C34 22 38 22 40 24" stroke="#2AABB5" stroke-width="1.2" stroke-linecap="round" fill="none" opacity="0.8"/>
  <path d="M22 30 C24 28 28 29 30 31 C32 29 36 28 38 30 C40 28 42 29 42 31" stroke="#2AABB5" stroke-width="1.2" stroke-linecap="round" fill="none" opacity="0.8"/>
  <path d="M24 36 C26 34 30 35 32 37 C34 35 38 34 40 36" stroke="#2AABB5" stroke-width="1.2" stroke-linecap="round" fill="none" opacity="0.8"/>
  <!-- Glow central -->
  <ellipse cx="32" cy="32" rx="6" ry="8" fill="#2AABB5" opacity="0.1"/>
  <!-- Chispas neurales -->
  <circle cx="32" cy="16" r="2" fill="#2AABB5" opacity="0.7"/>
  <circle cx="20" cy="22" r="1.5" fill="#2AABB5" opacity="0.5"/>
  <circle cx="44" cy="22" r="1.5" fill="#2AABB5" opacity="0.5"/>
  <!-- Base -->
  <line x1="26" y1="50" x2="38" y2="50" stroke="#2a5a8a" stroke-width="1.5" stroke-linecap="round"/>
</svg>
