<svg xmlns="http://www.w3.org/2000/svg" viewBox="0 0 64 64" fill="none">
  <!-- Estrella de 8 puntas -->
  <polygon points="32,8 35,24 50,20 38,30 52,38 36,36 38,52 30,40 18,50 24,36 8,34 22,28 12,16 28,22" fill="#0a1828" stroke="#22c55e" stroke-width="1.5"/>
  <!-- Interior -->
  <polygon points="32,14 34,24 44,22 38,28 46,34 36,33 38,44 31,38 22,44 26,34 16,32 24,27 18,20 28,24" fill="#17324d" opacity="0.6"/>
  <!-- Centro luminoso -->
  <circle cx="32" cy="32" r="6" fill="#22c55e" opacity="0.2"/>
  <circle cx="32" cy="32" r="3" fill="#22c55e" opacity="0.5"/>
  <circle cx="32" cy="32" r="1.5" fill="#F0C040" opacity="0.9"/>
  <!-- Rayos de luz -->
  <line x1="32" y1="22" x2="32" y2="26" stroke="#22c55e" stroke-width="1" opacity="0.5"/>
  <line x1="32" y1="38" x2="32" y2="42" stroke="#22c55e" stroke-width="1" opacity="0.5"/>
  <line x1="22" y1="32" x2="26" y2="32" stroke="#22c55e" stroke-width="1" opacity="0.5"/>
  <line x1="38" y1="32" x2="42" y2="32" stroke="#22c55e" stroke-width="1" opacity="0.5"/>
</svg>
