<svg xmlns="http://www.w3.org/2000/svg" viewBox="0 0 64 64" fill="none">
  <!-- Cristal / gema -->
  <polygon points="32,10 48,24 48,40 32,54 16,40 16,24" fill="#0a1828" stroke="#2AABB5" stroke-width="1.5"/>
  <!-- Facetas internas -->
  <polygon points="32,10 48,24 32,32" fill="#2AABB5" opacity="0.12"/>
  <polygon points="32,10 16,24 32,32" fill="#2AABB5" opacity="0.08"/>
  <polygon points="32,54 48,40 32,32" fill="#2AABB5" opacity="0.10"/>
  <polygon points="32,54 16,40 32,32" fill="#2AABB5" opacity="0.06"/>
  <!-- Líneas de faceta -->
  <line x1="32" y1="10" x2="32" y2="32" stroke="#2AABB5" stroke-width="1" opacity="0.5"/>
  <line x1="32" y1="32" x2="48" y2="24" stroke="#2AABB5" stroke-width="1" opacity="0.4"/>
  <line x1="32" y1="32" x2="16" y2="24" stroke="#2AABB5" stroke-width="1" opacity="0.4"/>
  <line x1="32" y1="32" x2="48" y2="40" stroke="#2AABB5" stroke-width="1" opacity="0.4"/>
  <line x1="32" y1="32" x2="16" y2="40" stroke="#2AABB5" stroke-width="1" opacity="0.4"/>
  <!-- Brillo -->
  <line x1="22" y1="16" x2="26" y2="20" stroke="white" stroke-width="1.5" stroke-linecap="round" opacity="0.4"/>
  <circle cx="22" cy="15" r="1.5" fill="white" opacity="0.3"/>
</svg>
